<svg viewBox="0 0 118 42" version="1.1" xmlns="http://www.w3.org/2000/svg" desc="Created with imagetracer-ts 1.0.2" >
 <path fill="rgb(219,219,219)" stroke="rgb(219,219,219)" stroke-width="1" d="M 71.5 18 L 82 18.5 L 71.5 19 L 71.5 18 Z" />
 <path fill="rgb(219,219,219)" stroke="rgb(219,219,219)" stroke-width="1" d="M 49.5 31 L 56 31.5 L 49.5 32 L 49.5 31 Z" />
 <path fill="rgb(219,219,219)" stroke="rgb(219,219,219)" stroke-width="1" d="M 111.5 35 L 114 35.5 L 111.5 36 L 111.5 35 Z" />
 <path fill="rgb(254,254,254)" stroke="rgb(254,254,254)" stroke-width="1" d="M 0 0 L 118 0 L 118 42 L 0 42 L 0 0 Z M 14.5 3 L 12 5.5 L 5 29.5 L 3 32.5 L 3 36 L 9 36 L 11 29.5 L 12.5 28 L 21.5 28 Q 24.8 29.8 25 34.5 Q 26.6 37.5 32 36 L 32 32.5 L 23 8.5 L 23 5.5 Q 21.5 1.5 14.5 3 Z M 38 3 L 37 5.5 L 38 10.5 L 38 36 L 58 36 L 58 31 L 44 31 L 44 4.5 Q 42.6 1.8 38 3 Z M 64 3 L 64 36 L 70 36 L 70 24.5 L 71.5 23 L 81.5 23 Q 84 21.8 83 18 L 71.5 18 L 70 16.5 L 70 9 L 84 9 L 84 3.5 L 83.5 3 L 64 3 Z M 98.5 3 L 96 5.5 L 91 23.5 L 87 32.5 L 87 36 L 93 36 L 95 29.5 L 96.5 28 L 105.5 28 Q 108.8 29.8 109 34.5 Q 110.6 37.5 116 36 L 116 32.5 L 107 8.5 L 107 5.5 Q 105.5 1.5 98.5 3 Z" />
 <path fill="rgb(254,254,254)" stroke="rgb(254,254,254)" stroke-width="1" d="M 16 13 L 19 14.5 L 21 22.5 Q 19.8 25.3 14.5 24 L 13 21.5 L 16 13 Z" />
 <path fill="rgb(254,254,254)" stroke="rgb(254,254,254)" stroke-width="1" d="M 100 13 Q 104.5 11.3 103 16.5 L 105 22.5 Q 104 25 99.5 24 Q 97.3 23.3 98 19.5 L 100 13 Z" />
 <path fill="rgb(224,224,224)" stroke="rgb(224,224,224)" stroke-width="1" d="M 37.5 6 L 38 9.5 L 37 9.5 L 37.5 6 Z" />
 <path fill="rgb(224,224,224)" stroke="rgb(224,224,224)" stroke-width="1" d="M 101.5 11 L 100.5 13 L 101.5 11 Z" />
 <path fill="rgb(224,224,224)" stroke="rgb(224,224,224)" stroke-width="1" d="M 82.5 19 L 83 21.5 L 82 21.5 L 82.5 19 Z" />
 <path fill="rgb(224,224,224)" stroke="rgb(224,224,224)" stroke-width="1" d="M 21.5 22 L 20.5 24 L 21.5 22 Z" />
 <path fill="rgb(224,224,224)" stroke="rgb(224,224,224)" stroke-width="1" d="M 97.5 22 L 98.5 24 L 97.5 22 Z" />
 <path fill="rgb(224,224,224)" stroke="rgb(224,224,224)" stroke-width="1" d="M 105.5 22 L 104.5 24 L 105.5 22 Z" />
 <path fill="rgb(224,224,224)" stroke="rgb(224,224,224)" stroke-width="1" d="M 95.5 28 L 94.5 30 L 95.5 28 Z" />
 <path fill="rgb(224,224,224)" stroke="rgb(224,224,224)" stroke-width="1" d="M 31.5 34 L 32 36 L 26 35.5 L 31.5 34 Z" />
 <path fill="rgb(224,224,224)" stroke="rgb(224,224,224)" stroke-width="1" d="M 3.5 35 L 8 35.5 L 3.5 36 L 3.5 35 Z" />
 <path fill="rgb(224,224,224)" stroke="rgb(224,224,224)" stroke-width="1" d="M 38.5 35 L 58 35.5 L 38.5 36 L 38.5 35 Z" />
 <path fill="rgb(224,224,224)" stroke="rgb(224,224,224)" stroke-width="1" d="M 64.5 35 L 70 35.5 L 64.5 36 L 64.5 35 Z" />
 <path fill="rgb(224,224,224)" stroke="rgb(224,224,224)" stroke-width="1" d="M 87.5 35 L 92 35.5 L 87.5 36 L 87.5 35 Z" />
 <path fill="rgb(216,216,216)" stroke="rgb(216,216,216)" stroke-width="1" d="M 14.5 4 Q 20.5 2.5 22 5.5 L 31 35 L 26 35 L 26 32.5 L 24 28 L 11.5 28 L 10 29.5 L 9 35 L 4 35 L 4 32.5 L 14.5 4 Z M 17.5 10 L 14 15.5 L 13 20.5 L 13 24 L 22 24 Q 21.6 15.8 17.5 10 Z" />
 <path fill="rgb(216,216,216)" stroke="rgb(216,216,216)" stroke-width="1" d="M 39.5 4 L 43 4.5 L 43 30.5 L 44.5 32 L 58 32 L 57.5 35 L 38 35 L 38 5.5 L 39.5 4 Z" />
 <path fill="rgb(216,216,216)" stroke="rgb(216,216,216)" stroke-width="1" d="M 64 4 L 83.5 4 L 84 8 L 70 8 L 70 17.5 L 71.5 19 L 82 19 L 81.5 22 L 70 22 L 70 35 L 64 35 L 64 4 Z" />
 <path fill="rgb(216,216,216)" stroke="rgb(216,216,216)" stroke-width="1" d="M 98.5 4 Q 104.5 2.5 106 5.5 L 115 35 L 110 35 L 110 32.5 L 106.5 28 L 95.5 28 L 94 29.5 L 93 35 L 87 34.5 L 89 31.5 L 96 7.5 L 98.5 4 Z M 101.5 10 L 97 20.5 L 97 24 L 106 24 Q 105.6 15.8 101.5 10 Z" />
 <path fill="rgb(237,237,237)" stroke="rgb(237,237,237)" stroke-width="1" d="M 16.5 3 L 21 3.5 L 16.5 4 L 16.5 3 Z" />
 <path fill="rgb(237,237,237)" stroke="rgb(237,237,237)" stroke-width="1" d="M 42.5 3 L 44 4.5 L 44 29.5 L 43 29.5 L 43 4.5 L 42.5 3 Z" />
 <path fill="rgb(237,237,237)" stroke="rgb(237,237,237)" stroke-width="1" d="M 64.5 3 L 77 3.5 L 64.5 4 L 64.5 3 Z" />
 <path fill="rgb(237,237,237)" stroke="rgb(237,237,237)" stroke-width="1" d="M 78.5 3 L 84 3.5 L 78.5 4 L 78.5 3 Z" />
 <path fill="rgb(237,237,237)" stroke="rgb(237,237,237)" stroke-width="1" d="M 101.5 3 L 105 3.5 L 101.5 4 L 101.5 3 Z" />
 <path fill="rgb(237,237,237)" stroke="rgb(237,237,237)" stroke-width="1" d="M 71.5 8 L 84 8.5 L 71.5 9 L 71.5 8 Z" />
 <path fill="rgb(237,237,237)" stroke="rgb(237,237,237)" stroke-width="1" d="M 17.5 12 L 18.5 14 L 17.5 12 Z" />
 <path fill="rgb(237,237,237)" stroke="rgb(237,237,237)" stroke-width="1" d="M 71.5 22 L 82 22.5 L 71.5 23 L 70.5 24 L 71.5 22 Z" />
 <path fill="rgb(237,237,237)" stroke="rgb(237,237,237)" stroke-width="1" d="M 22.5 28 L 25 31.5 L 24 31.5 L 22.5 28 Z" />
 <path fill="rgb(237,237,237)" stroke="rgb(237,237,237)" stroke-width="1" d="M 106.5 28 L 109 31.5 L 108 31.5 L 106.5 28 Z" />
 <path fill="rgb(237,237,237)" stroke="rgb(237,237,237)" stroke-width="1" d="M 45.5 31 L 48 31.5 L 45.5 32 L 45.5 31 Z" />
</svg>